<?xml version="1.0" encoding="utf-8"?>
<!-- Generator: Adobe Illustrator 21.0.0, SVG Export Plug-In . SVG Version: 6.00 Build 0)  -->
<svg version="1.1" id="图层_1" xmlns:pclika="https://pclika.com/ns/brand"
	 xmlns="http://www.w3.org/2000/svg" xmlns:xlink="http://www.w3.org/1999/xlink" x="0px" y="0px" viewBox="0 0 489 489.3"
	 style="enable-background:new 0 0 489 489.3;" xml:space="preserve">
<style type="text/css">
	.st0{fill:#FFFFFF;}
</style>
<path class="st0" d="M244.5,8.5C114.1,8.5,8.3,114.2,8.3,244.7s105.8,236.2,236.2,236.2s236.2-105.8,236.2-236.2
	S374.9,8.5,244.5,8.5z M381.8,167.8c-2.5,21.8-13,39.9-27.2,55.9c-20.2,22.8-45.8,36.6-74.8,44.9c-20,5.7-40.3,9.2-61.1,9.6
	c-1.6,0-2.3,0.5-2.8,2.1c-7.1,20.6-13.9,41.4-22.1,61.6c-4.8,11.9-10.8,23.2-19.5,32.7c-11.2,12.2-25.3,19.1-41.6,21.7
	c-6,1-12.1,1.7-18.1,2c-1.6,0-3.3,0.6-4.9-0.7c0.4-0.3,0.6-0.7,1-0.8c14.6-4.2,24.7-13.9,32.3-26.6c8.7-14.4,14.6-30,20.4-45.7
	c11.8-31.9,22.6-64.1,33.9-96.2c5.8-16.4,11.5-32.8,18-48.9c5.9-14.7,14.7-26.7,28.5-34.8c9.8-5.7,20.5-8.4,31.6-10
	c0.4-0.1,0.9,0,1.3,0.1c0.2,1.1-0.6,1.3-1.1,1.7c-9.2,6.5-15,15.6-18.8,25.9c-8.5,22.6-16.3,45.5-24,68.3
	c-4.4,12.9-8.8,25.8-13.3,38.6c-0.6,1.8-0.9,2.8,1.7,2.6c23.7-2.5,46.5-8,66.9-21c26.3-16.8,45-39.5,53.6-69.9
	c3.6-12.7,5-25.5,1.9-38.4c-4.8-19.8-17.8-32-37-37.9c-14-4.3-28.3-5-42.8-3.9c-27.3,2.2-53.2,9.6-77.2,22.9
	c-18,10-34,22.5-46.5,39.2c-9,12-14.6,25.4-14.5,40.5c0,10.3,4.2,18.9,13.7,23.9c7.8,4.1,15.6,3.8,23.2-0.5c0.5-0.3,1-0.6,1.6-0.9
	c0.6,1.7-0.6,2.4-1.5,3.1c-5.1,4.2-11.1,5.7-17.5,6.1c-12.7,0.7-28.9-6.3-34.8-19.2c-4.3-9.6-4.6-19.4-2-29.5
	c3.7-14.3,11.9-25.8,21.8-36.4c23.5-25,52.8-39.9,85.3-49.2c22.7-6.5,45.9-10.1,69.5-9.8c19.2,0.3,37.9,3.1,55.9,10.2
	c15.4,6.1,27.5,16,35.3,30.8C382,143.2,383.2,155.3,381.8,167.8z"/>
</svg>
