<?xml version="1.0" encoding="utf-8"?>
<!-- Generator: Adobe Illustrator 21.0.0, SVG Export Plug-In . SVG Version: 6.00 Build 0)  -->
<svg version="1.1" id="图层_1" xmlns="http://www.w3.org/2000/svg" xmlns:xlink="http://www.w3.org/1999/xlink" x="0px" y="0px"
	 viewBox="0 0 841.9 595.3" style="enable-background:new 0 0 841.9 595.3;" xml:space="preserve">
<style type="text/css">
	.st0{fill:#FFFFFF;}
</style>
<g>
	<path class="st0" d="M402.2,209.7c7.2-1.3,13.9-4.2,21-6.1c4.3-1.1,8.7-2.2,12.7-4.3c0.7-0.3,1.5-0.8,2.1-0.3
		c0.7,0.7,0,1.6-0.2,2.3c-8.6,24.5-17.2,49-25.7,73.6c-9.3,26.8-18.5,53.6-27.3,80.6c-1.4,4.2-2.7,8.5-3.3,12.8
		c-0.1,1-0.2,1.9-0.2,2.9c0.1,6.4,5.2,9.6,11,6.9c5.5-2.6,10.1-6.5,14.4-10.7c9.5-9.3,17.6-19.7,25-30.7c2.4-3.6,3.5-7.8,4.9-11.8
		c4.4-12.1,8.6-24.3,13-36.5c0.2-0.6,0.4-1.1,0.6-1.7c1.8-6.4-0.5-9.6-7.1-10.2c-1.5-0.1-2.9-0.3-4.4-0.4c0-1,0.7-1,1.1-1.1
		c12.7-2.7,25.1-6.7,37.8-9.5c1.3-0.3,2.7-0.5,4-0.8c1.6-0.4,1.9,0.1,1.4,1.6c-1.4,3.9-2.8,7.8-4.2,11.7
		c-7.2,20.8-14.4,41.6-21.6,62.3c-3.2,9.1-6.7,18.2-8.8,27.7c-0.4,1.7-0.6,3.4-0.4,5.1c0.6,4.9,4.7,7.3,9.2,5.2
		c4.8-2.2,8.9-5.6,12.7-9.3c10-9.8,18.6-20.8,26.6-32.4c2.9-4.3,4.3-9.2,6-14c8.7-25,17.5-50,26.2-75c2.7-7.7,5.5-15.3,7.7-23.1
		c0.2-0.6,0.4-1.3,0.5-2c1.3-5.4-0.8-8.6-6.3-9.5c-1.2-0.2-2.6,0.1-3.7-0.8c0.2-1,1.1-0.8,1.7-0.9c10.1-1.9,19.8-5.7,29.7-8.4
		c3.6-1,7.2-2.2,10.8-3.3c0.5-0.1,1.1-0.6,1.4,0c0.2,0.3-0.1,0.8-0.2,1.2c-5.7,15.5-10.9,31.2-16.3,46.7c-8,23-15.9,46-23.8,69
		c-0.6,1.7-1.7,3.3-2,5.9c3.6-3.1,7.3-5.1,10.6-7.6c17.2-12.8,34-26.2,50.7-39.6c2.3-1.8,4.7-3.5,7-5.4c3.5-2.9,7.6-4,12.1-4.2
		c7.8-0.3,15.6-0.3,23.5-0.4c0.6,0,1.5-0.3,1.7,0.6c0.1,1-0.7,1.1-1.5,1.3c-7.1,1.1-13.9,2.9-20.4,6.1c-12.6,6.3-24.3,14-36,21.9
		c-10.2,6.8-20.3,13.7-30.4,20.6c-0.2,0.2-0.4,0.4-0.8,0.6c2,0,3.8-0.1,5.6,0c8,0.8,13.6,5.2,17.9,11.6c5.7,8.4,9.9,17.7,14.5,26.7
		c6.2,11.9,12.7,23.5,21.3,33.9c9.2,11.2,20.1,20.3,33.6,25.9c14.8,6.2,30.2,8.1,46.1,6.8c17.7-1.5,33.9-7.2,48.7-16.8
		c3.3-2.1,6.3-4.7,9.4-7c0.7-0.5,1.3-1.3,2.5-1.1c-0.2,1.4-1.2,2.2-2,3.1c-7.4,8-16.4,13.6-26.1,18.1c-20.3,9.5-41.7,12.5-63.9,10.7
		c-18.8-1.6-36.3-7-52-17.4c-15.6-10.4-27.6-24.2-36.7-40.6c-7.1-12.7-13.1-26-19.8-39c-1.1-2.2-2.5-4.1-4.2-5.8
		c-1.8-1.8-3.7-2-6-0.9c-0.5,0.2-0.9,0.6-1.4,0.7c-5.3,1.3-6.9,5.5-8.4,10.1c-5.4,16.8-11.1,33.5-16.7,50.2c-0.4,1.1-1,1.4-1.9,1.4
		c-7.7,0-15.3,0.1-23,0.2c-1.9,0-1.4-0.9-1-2c2.3-6.4,4.6-12.7,6.8-19.1c2.3-6.5,4.5-13,6.6-19.6c-2.5,3.4-4.9,6.9-7.6,10.2
		c-7.7,9.5-15.7,18.8-26.1,25.7c-4.5,3-9.3,5.2-14.7,6.1c-13.9,2.3-24.1-7.8-21.9-21.8c0.8-5.2,2.4-10.1,3.9-15
		c0.2-0.8,0.7-1.6,0.4-2.9c-3.4,4.9-7,9.4-10.7,13.8c-7.1,8.5-14.9,16.4-24.6,21.9c-5.4,3.1-11,5-17.4,4.5
		c-9.7-0.8-16.6-7.6-17.6-17.4c-0.7-6.8,1-13.3,3-19.7c0.8-2.7,1.7-5.4,2.1-8.3c-2.1,2.5-4.2,5-6.4,7.4c-7.9,8.8-16.2,17.2-25.9,24
		c-12.7,9-26.4,15.3-42.5,14.6c-15.3-0.7-27.9-6.7-36.2-19.9c-5.7-9-7.3-19.2-6.3-29.7c2.2-22.3,13.2-40,29.5-54.8
		c11.5-10.4,24.6-17.7,39.9-20.8c10.9-2.2,21.8-2.1,32.4,2.1c3.9,1.5,7.3,3.9,9.9,7.2c5.5,7,4.5,19.2-5.5,23.6
		c-6,2.6-12.4,3.3-18.7,3.9c-0.3-1,0.3-1.1,0.7-1.4c6.2-5.2,9.2-15.1,6.7-22.3c-2.1-5.7-6.3-8.7-12.2-9.3
		c-8.4-0.9-15.7,2.3-22.2,7.3c-19.3,14.8-29.6,34.8-33.1,58.5c-1.5,10.3-1,20.6,4,30.1c4.7,9.1,12.4,13.9,22.5,14.7
		c10,0.8,18.7-2.8,27.1-7.8c13.3-8.1,23.7-19.3,33.7-31c6.3-7.3,9.3-16,12.4-24.8c8.2-23.6,16.5-47.2,24.8-70.7
		c2.2-6.2,4.4-12.5,6.6-18.7c0.1-0.3,0.2-0.6,0.3-0.9c2.6-8.1-0.2-12.1-8.7-12.5c-0.5,0-1.1,0.2-1.6-0.3c0.6-1.7,2.5-0.7,3.4-1.6
		C399.1,209.9,400.6,209.8,402.2,209.7z"/>
	<path class="st0" d="M77.5,405c0.3-0.2,0.5-0.5,0.7-0.6c11.4-3.2,19.2-10.8,25.1-20.6c6.8-11.2,11.4-23.3,15.9-35.5
		c9.1-24.8,17.6-49.8,26.4-74.7c4.5-12.7,8.9-25.5,14-38c4.6-11.4,11.5-20.7,22.2-27c7.6-4.5,15.9-6.5,24.5-7.8c0.3,0,0.7,0,1,0
		c0.2,0.8-0.5,1-0.8,1.3c-7.2,5.1-11.6,12.1-14.6,20.1c-6.6,17.6-12.6,35.3-18.7,53.1c-3.4,10-6.9,20-10.4,30
		c-0.5,1.4-0.7,2.2,1.3,2c18.4-1.9,36.2-6.2,52-16.3c20.4-13,35-30.7,41.7-54.4c2.8-9.8,3.9-19.8,1.4-29.8
		c-3.7-15.4-13.8-24.9-28.8-29.5c-10.9-3.3-22-3.9-33.3-3c-21.2,1.7-41.3,7.4-60,17.8c-14,7.8-26.4,17.5-36.1,30.4
		c-7,9.3-11.3,19.7-11.3,31.5c0,8,3.2,14.7,10.6,18.6c6,3.2,12.1,3,18.1-0.4c0.4-0.2,0.8-0.4,1.3-0.7c0.4,1.3-0.5,1.8-1.2,2.4
		c-3.9,3.3-8.6,4.5-13.6,4.7c-9.9,0.6-22.5-4.9-27.1-15c-3.4-7.4-3.6-15.1-1.5-22.9c2.9-11.1,9.3-20.1,17-28.3
		c18.2-19.5,41-31,66.3-38.3c17.7-5,35.6-7.9,54-7.6c14.9,0.2,29.5,2.4,43.4,7.9c12,4.7,21.4,12.4,27.4,23.9
		c4.6,8.8,5.5,18.2,4.4,27.9c-1.9,16.9-10.1,31-21.1,43.5c-15.7,17.7-35.6,28.5-58.1,34.9c-15.5,4.4-31.3,7.1-47.5,7.5
		c-1.3,0-1.8,0.4-2.2,1.6c-5.5,16-10.8,32.2-17.1,47.9c-3.7,9.2-8.4,18-15.2,25.4c-8.7,9.5-19.7,14.8-32.3,16.8
		c-4.7,0.7-9.4,1.3-14.1,1.6C80.1,405.5,78.8,405.9,77.5,405z"/>
	<path class="st0" d="M484.9,193.8c13-0.1,24.2,10.8,24.2,23.5c0,14.4-11.3,26.7-24.8,26.7c-13.6,0-24.9-11.3-24.9-25
		C459.3,205.1,470.8,193.8,484.9,193.8z"/>
	<path class="st0" d="M766.3,338.1c-1.1-0.7-1.6,0.1-2.2,0.9c-2.9,4-5.7,7.9-8.6,11.9c-6,8.2-12.7,15.8-20.6,22.3
		c-2.6,2.2-5.4,4.1-8.7,5.1c-4.8,1.5-8.3-0.9-8.6-5.9c-0.2-2.8-0.1-5.6,0.7-8.3c4.1-14.1,8.9-27.9,13.7-41.7
		c6.5-18.5,12.7-37.2,20-55.5c0.5-1.4,0.1-1.5-1.1-1.5c-4.7,0.2-9.3,0.5-14,0.6c-5.4,0.2-9.2,2.7-11.4,7.7c-0.8,1.9-1.7,3.7-2.6,5.5
		c-1.3,2.9-2.6,5.8-4,8.6c-0.5-1.6-0.4-3.1-0.5-4.6c-0.8-9.4-6.6-16.3-15.7-18.7c-4-1-8-1.3-12.1-1.1c-13.4,0.5-25.3,5.4-36.4,12.5
		c-15.3,9.8-27,23.1-35.3,39.3c-7.3,14.3-10.7,29.3-7.9,45.3c2.1,12,8,21.4,19.6,26.2c10.1,4.2,19.9,2.5,29.3-2.4
		c10.9-5.7,19.1-14.4,26.9-23.7c3.6-4.3,6.8-8.9,10-13.5c0,1.4-0.3,2.7-0.7,4c-1.9,5.9-3.8,11.9-3.3,18.3c1,13.4,10.3,20.6,23,19
		c7.5-1,13.9-4.9,19.6-9.5c13-10.7,22.7-24.1,30.7-38.9C766.6,339.6,767.4,338.7,766.3,338.1z M710.5,310.1
		c-6.5,18.6-16.1,35.4-29.6,49.8c-5,5.4-10.6,10.3-17.3,13.6c-3.3,1.6-6.8,2.5-10.5,2.1c-6.2-0.7-10.2-4.3-12.7-9.9
		c-2.4-5.4-3.2-11.1-3.2-18.9c0.7-12.4,4.3-26.1,11.2-38.8c6-11,13.6-20.8,23.5-28.5c5.7-4.4,11.8-8.4,19.1-9.8
		c11.8-2.2,20.4,4,22.4,15.8C715,294,713.3,302.1,710.5,310.1z"/>
</g>
</svg>
