<svg width="1200" height="900" viewBox="0 0 1200 900" fill="none" xmlns="http://www.w3.org/2000/svg">
  <rect width="1200" height="900" fill="#040507"/>
  <circle cx="960" cy="180" r="230" fill="#6477FF" fill-opacity="0.18"/>
  <circle cx="230" cy="710" r="240" fill="#1B1F59" fill-opacity="0.48"/>
  <rect x="162" y="140" width="876" height="620" rx="34" stroke="#DDE2FF" stroke-opacity="0.22" stroke-width="2"/>
  <rect x="228" y="220" width="360" height="250" rx="24" fill="#0A0D18" stroke="#DDE2FF" stroke-opacity="0.15"/>
  <rect x="228" y="510" width="360" height="170" rx="24" fill="#0A0D18" stroke="#DDE2FF" stroke-opacity="0.15"/>
  <rect x="650" y="220" width="320" height="460" rx="24" fill="#0A0D18" stroke="#DDE2FF" stroke-opacity="0.15"/>
  <path d="M710 320C710 268.072 752.072 226 804 226C855.928 226 898 268.072 898 320V364H926V526H682V364H710V320Z" fill="#12183B" stroke="#A8B5FF" stroke-width="2"/>
  <path d="M804 410V470" stroke="#DDE2FF" stroke-width="8" stroke-linecap="round"/>
  <circle cx="804" cy="388" r="22" fill="#DDE2FF"/>
  <path d="M270 286H544" stroke="#9DB0FF" stroke-width="3"/>
  <path d="M270 326H488" stroke="#DDE2FF" stroke-opacity="0.65" stroke-width="3"/>
  <path d="M270 366H450" stroke="#DDE2FF" stroke-opacity="0.35" stroke-width="3"/>
  <path d="M270 564H544" stroke="#9DB0FF" stroke-width="3"/>
  <path d="M270 604H480" stroke="#DDE2FF" stroke-opacity="0.55" stroke-width="3"/>
  <text x="224" y="732" fill="#F4F6FF" fill-opacity="0.94" font-family="monospace" font-size="46">MEMORY / INTERFACE / SECURITY</text>
</svg>
