<svg width="1200" height="900" viewBox="0 0 1200 900" fill="none" xmlns="http://www.w3.org/2000/svg">
  <rect width="1200" height="900" fill="#050505"/>
  <circle cx="910" cy="180" r="220" fill="#0F8F67" fill-opacity="0.18"/>
  <circle cx="290" cy="690" r="260" fill="#0B3A2D" fill-opacity="0.38"/>
  <rect x="120" y="140" width="960" height="620" rx="28" stroke="#D8FFF0" stroke-opacity="0.24" stroke-width="2"/>
  <rect x="180" y="220" width="420" height="46" rx="8" fill="#D8FFF0" fill-opacity="0.1"/>
  <rect x="180" y="294" width="300" height="16" rx="8" fill="#D8FFF0" fill-opacity="0.7"/>
  <rect x="180" y="330" width="250" height="16" rx="8" fill="#D8FFF0" fill-opacity="0.45"/>
  <rect x="180" y="392" width="180" height="120" rx="18" fill="#0D1311" stroke="#D8FFF0" stroke-opacity="0.2"/>
  <rect x="386" y="392" width="180" height="120" rx="18" fill="#0D1311" stroke="#D8FFF0" stroke-opacity="0.2"/>
  <rect x="592" y="392" width="180" height="120" rx="18" fill="#0D1311" stroke="#D8FFF0" stroke-opacity="0.2"/>
  <path d="M680 590H960" stroke="#D8FFF0" stroke-opacity="0.65" stroke-width="2"/>
  <path d="M680 632H1020" stroke="#D8FFF0" stroke-opacity="0.38" stroke-width="2"/>
  <path d="M680 674H920" stroke="#D8FFF0" stroke-opacity="0.22" stroke-width="2"/>
  <path d="M740 260L960 260" stroke="#44E0A8" stroke-width="4"/>
  <path d="M740 320L1040 320" stroke="#44E0A8" stroke-opacity="0.55" stroke-width="4"/>
  <path d="M740 380L900 380" stroke="#44E0A8" stroke-opacity="0.32" stroke-width="4"/>
  <text x="180" y="640" fill="#F0FFF8" fill-opacity="0.9" font-family="monospace" font-size="48">MCP PLATFORM</text>
</svg>
